<?xml version="1.0" encoding="utf-8" ?>
<svg xmlns="http://www.w3.org/2000/svg" xmlns:xlink="http://www.w3.org/1999/xlink" width="1024" height="1024">
	<path fill="white" d="M0 0L1024 0L1024 1024L0 1024L0 0Z"/>
	<path fill="#222CDF" d="M436.128 445.352C445.964 450.838 459.212 454.943 469.86 459.055C473.546 460.479 477.768 461.732 481.153 463.766C488.565 468.218 501.51 499.984 503.922 508.833C497.843 511.231 491.959 514.098 485.869 516.47C476.768 520.014 467.389 522.844 458.021 525.584Q448.813 528.145 439.529 530.418L416.246 505.661C408.348 497.331 400.229 489.084 392.905 480.24C398.863 474.792 405.503 469.973 411.843 464.977Q424.074 455.273 436.128 445.352Z"/>
	<path fill="white" d="M436.51 450.9C450.647 456.898 465.024 462.129 479.283 467.794C487.187 478.11 494.154 494.063 498.072 506.411C484.515 511.869 470.971 517.115 456.837 520.924Q448.973 523.201 441.079 525.373C433.109 517.088 425.383 508.555 417.471 500.21C411.393 493.8 405.085 487.593 399.153 481.049C411.452 470.966 424.896 461.698 436.51 450.9Z"/>
	<path fill="#222CDF" d="M581.614 490.457C585.313 491.591 626.967 539.856 631.197 546.214C621.325 552.515 612.292 560.148 603.171 567.465C597.49 572.022 591.39 576.373 586.247 581.532C582.618 579.559 578.905 577.843 575.141 576.143C562.72 570.518 549.67 566.062 537.673 559.557C534.428 552.865 531.913 545.721 529.213 538.793C526.12 530.853 522.838 522.967 520.384 514.8C540.098 505.203 561.96 500.228 581.614 490.457Z"/>
	<path fill="white" d="M581.585 496.044C585.839 499.37 590.439 505.888 594.151 510.071C604.385 521.604 615.056 532.73 624.495 544.951C611.358 554.97 598.522 565.38 585.468 575.506C582.017 573.775 578.416 572.305 574.876 570.762C563.278 565.781 551.496 561.384 540.1 555.93C536.341 542.756 530.354 530.002 525.47 517.201C533.137 513.993 541.19 511.419 548.997 508.548Q565.345 502.435 581.585 496.044Z"/>
	<path fill="#222CDF" d="M532.554 574.929C538.702 577.685 545.302 579.702 551.66 581.952L585.346 593.794Q596.154 623.51 606.032 653.547C605.898 653.715 605.767 653.884 605.631 654.05C602.139 658.328 578.867 680.156 574.745 680.585C561.136 671.128 546.962 662.409 533.021 653.45C522.046 646.397 511.358 639.106 500.152 632.401C504.59 627.202 507.731 620.048 510.929 614.004C517.811 600.999 524.359 587.113 532.554 574.929Z"/>
	<path fill="white" d="M534.585 580.73C539.955 581.943 545.255 584.384 550.429 586.282C560.738 590.062 571.03 593.947 581.496 597.278C584.866 605.703 587.68 614.41 590.67 622.977C594.09 632.771 597.697 642.544 600.53 652.528C596.643 656.721 578.896 673.519 574.645 675.087C551.894 660.918 530.039 645.22 507.355 630.935C513.722 619.515 519.546 607.732 525.769 596.221C528.572 591.038 531.238 585.584 534.585 580.73Z"/>
	<path fill="#222CDF" d="M636.409 422.34C646.506 429.207 655.511 438.132 664.835 445.999C674.743 454.359 688.736 463.755 696.543 473.809C690.858 486.081 680.412 499.301 672.794 510.615C668.663 516.749 663.263 526.621 658.119 531.575C655.199 534.387 650.291 536.486 646.764 538.486C646.023 538.944 645.271 539.228 644.467 539.555C641.61 538.088 593.717 487.132 588.162 480.617C595.526 472.857 601.729 464.267 608.446 455.975C617.618 444.65 627.079 433.536 636.409 422.34Z"/>
	<path fill="white" d="M636.767 428.865C654.899 443.441 672.789 458.761 690.073 474.334C684.415 485.802 676.099 496.398 668.998 507.036C664.731 513.43 659.634 522.728 654.429 528.206C652.551 530.182 649.131 531.555 646.709 532.862L645.689 533.429C645.356 533.398 645.004 533.45 644.69 533.335C643.247 532.81 599.052 486.623 594.337 481.111C603.397 469.68 612.676 458.48 621.877 447.17C626.828 441.085 631.449 434.631 636.767 428.865Z"/>
	<path fill="#222CDF" d="M449.971 344.37C453.846 344.853 516.174 383.944 524.162 388.879C520.485 397.687 515.403 406.024 510.765 414.358Q500.747 432.261 490.969 450.295L489.08 453.401C477.836 445.005 452.684 436.631 438.991 431.145C429.24 413.854 424.082 389.406 419.685 370.179C428.423 361.08 439.691 351.721 449.971 344.37Z"/>
	<path fill="white" d="M450.832 350.358C459.509 354.012 468.755 360.933 476.802 365.939Q497.231 378.651 517.981 390.834C515.32 397.053 511.4 403.067 508.141 409.016Q499.193 425.679 490.059 442.242L487.868 446.397C472.629 439.482 457.464 433.022 441.766 427.196C434.496 409.715 428.912 390.563 425.198 371.998C433.829 364.884 441.945 357.16 450.832 350.358Z"/>
	<path fill="#222CDF" d="M373.521 482.278C376.831 483.746 430.864 534.362 436.129 540.232Q412.671 571.225 388.404 601.589C383.02 599.749 333.748 555.824 326.234 548.529C334.962 529.621 359.326 497.258 373.521 482.278Z"/>
	<path fill="white" d="M374.13 489.872C379.411 492.223 424.53 533.746 429.783 540.123C426.779 545.897 421.938 551.317 417.983 556.488C408.241 569.225 398.096 581.656 388.177 594.255C382.525 592.613 340.084 554.32 332.732 548.015C344.965 527.15 358.491 508.357 374.13 489.872Z"/>
	<path fill="#222CDF" d="M285.575 438.94C292.281 442.147 298.853 447.448 305.002 451.624Q330.426 468.746 354.849 487.267C350.329 497.215 343.533 506.912 337.476 515.999Q327.492 531.204 317.095 546.129C312.498 546.54 307.956 547.169 303.391 547.832C295.712 548.678 287.958 549.501 280.398 551.122C266.73 523.669 251.96 496.09 235.744 470.072C251.951 461.529 271.583 450.516 285.575 438.94Z"/>
	<path fill="white" d="M285.953 445.544C297.701 452.739 309.134 460.987 320.451 468.852C329.745 475.311 339.487 481.601 348.183 488.845C342.694 499.016 335.631 508.795 329.241 518.439C324.203 526.042 319.446 534.129 313.77 541.265C310.328 541.615 306.883 542.173 303.453 542.633C296.78 543.632 290.144 544.549 283.422 545.146C272.034 520.3 257.81 496.13 244.036 472.525C259.436 463.679 271.624 455.961 285.953 445.544Z"/>
	<path fill="#222CDF" d="M741.183 471.158L742.195 471.1C745.044 473.571 759.011 500.603 761.836 505.577C769.958 519.875 778.71 533.981 786.398 548.505C787.481 550.551 788.409 552.529 789.051 554.763C771.641 564.443 753.706 573.26 736.551 583.38Q730.476 579.295 724.343 575.297C718.806 571.423 712.928 567.911 707.291 564.171Q687.107 550.783 667.095 537.14C672.581 526.543 679.403 516.375 685.557 506.133C691.127 496.861 696.367 485.758 703.495 477.659C708.094 477.216 712.738 476.038 717.293 475.221L741.183 471.158Z"/>
	<path fill="white" d="M738.971 476.706C740.216 477.364 741.202 479.253 741.905 480.467C750.7 495.661 758.617 511.518 767.111 526.905C771.651 535.127 778.054 543.725 781.27 552.499C766.925 561.17 751.521 569.234 736.533 576.756C732.243 574.508 728.241 571.629 724.208 568.953C707.12 558.355 690.734 546.645 673.751 535.878C677.603 528.418 682.741 521.332 687.057 514.1C693.359 503.538 699.144 492.625 705.676 482.209L738.971 476.706Z"/>
	<path fill="#222CDF" d="M538.675 391.246C546.888 392.033 561.807 397.332 570.343 399.902Q597.824 408.066 625.201 416.573C622.323 422.138 618.646 427.511 615.273 432.794C605.524 448.065 594.927 462.818 584.521 477.643C578.844 479.271 573.301 481.69 567.789 483.811C556.921 487.464 525.96 500.51 517.284 500.289C514.755 497.17 508.096 478.421 505.871 473.246C503.566 467.888 500.944 462.668 498.338 457.451C503.141 449.83 507.262 441.798 511.773 434.003C520.105 419.604 529.073 404.828 538.675 391.246Z"/>
	<path fill="white" d="M540.934 396.436C556.456 400.474 571.548 405.484 586.891 410.076C597.084 413.127 607.812 415.624 617.753 419.384C611.2 430.798 603.714 441.464 596.315 452.328C591.434 459.494 586.767 466.795 581.801 473.906C576.434 475.597 571.152 477.605 565.856 479.508C550.625 484.984 535.386 491.179 519.925 495.893L503.956 457.084C507.047 452.445 509.586 447.405 512.423 442.606L529.824 413.597C533.309 407.833 536.632 401.621 540.934 396.436Z"/>
	<path fill="#222CDF" d="M505.83 522.986C510.237 527.581 519.051 560.006 521.946 568.209C521.909 568.404 521.874 568.601 521.833 568.795C521.765 569.114 521.687 569.43 521.618 569.748C518.895 582.273 492.677 623.439 484.847 636.643C468.737 631.053 452.815 624.494 436.844 618.472L401.058 604.805C404.812 595.891 433.348 548.017 439.631 544.109C443.217 541.879 465.598 537.197 472.072 535.242Q489.3 530.076 505.83 522.986Z"/>
	<path fill="white" d="M503.162 529.488L503.721 529.629C506.931 533.794 515.582 562.888 517.824 569.748C506.019 590.146 495.461 611.714 482.415 631.343C468.79 624.821 454.348 620.052 440.319 614.479L407.83 601.931C417.893 583.511 429.089 564.805 441.449 547.83C462.662 543.456 482.758 536.601 503.162 529.488Z"/>
	<path fill="#222CDF" d="M660.129 291.727C660.849 291.581 661.218 291.65 661.929 291.77C666.346 297.792 670.167 304.247 674.601 310.28C680.236 317.948 686.642 325.324 691.623 333.425Q671.809 356.908 652.644 380.923C646.541 388.477 636.794 398.55 632.983 407.199C620.908 401.36 608.489 396.638 595.919 392.006C580.514 386.289 564.7 381.794 548.987 377.015C552.975 369.433 555.902 360.836 559.375 352.942Q570.964 326.543 582.935 300.315C592.793 297.77 603.775 297.189 613.906 296.185L660.129 291.727Z"/>
	<path fill="white" d="M658.607 297.288C658.807 297.41 682.351 329.452 684.711 332.759C678.264 341.672 670.744 350.097 663.804 358.643Q646.835 379.341 630.708 400.702C619.394 395.664 608.079 391.257 596.377 387.189C582.751 382.065 569.049 378.411 555.202 374.047C565.933 351.055 575.956 327.702 586.927 304.831C610.659 301.673 634.748 299.278 658.607 297.288Z"/>
	<path fill="#222CDF" d="M393.603 616.314C405.748 620.297 417.726 626.14 429.598 630.949C445.476 637.383 461.657 643.113 477.282 650.159C474.161 657.805 469.951 665.265 466.204 672.631C457.428 689.884 448.233 706.918 440.271 724.572C431.811 726.08 422.934 726.415 414.377 727.094C396.901 728.695 379.361 730.434 361.841 731.431C354.217 717.389 342.868 705.357 334.092 692.05C340.846 680.707 352.868 667.649 361.271 656.981L382.162 630.318C385.896 625.609 389.448 620.665 393.603 616.314Z"/>
	<path fill="white" d="M394.678 622.305C404.812 626.671 415.334 630.403 425.6 634.473C440.544 640.396 455.364 646.589 470.449 652.151C464.615 665.449 457.259 678.256 450.539 691.139C445.658 700.495 441.382 710.114 436.197 719.314C428.563 720.65 420.616 721.043 412.895 721.844C397.064 723.404 380.837 723.759 365.112 725.963C357.399 714.566 349.558 702.31 340.425 692.017C351.42 679.488 361.442 665.588 371.523 652.307C379.16 642.244 387.099 632.421 394.678 622.305Z"/>
	<path fill="#222CDF" d="M653.515 547.414C656.32 547.388 725.678 586.625 735.781 591.445C735.156 600.841 735.783 610.52 735.914 619.938Q736.343 645.929 736.012 671.921C722.672 679.531 708.471 685.802 694.736 692.682Q689.71 689.921 684.713 687.108C675.544 681.903 665.962 677.237 656.635 672.306L616.187 650.709C614.537 643.178 611.629 635.714 609.217 628.375Q602.417 607.971 596.071 587.42C605.473 580.757 615.072 574.352 624.504 567.726C634.167 560.937 643.669 553.939 653.515 547.414Z"/>
	<path fill="white" d="M653.05 553.374C656.01 553.565 723.053 590.663 729.779 594.899C730.315 619.487 730.336 644.043 730.416 668.638C718.251 674.09 706.062 679.827 694.551 686.568Q689.994 683.998 685.382 681.529Q662.464 669.751 639.827 657.44C633.489 654.059 626.924 651.102 620.754 647.416C616.984 638.565 614.275 628.908 611.35 619.73L601.502 589.63Q627.151 571.325 653.05 553.374Z"/>
	<path fill="#222CDF" d="M330.68 333.669Q355.099 346.405 379.945 358.285C388.477 362.457 397.595 367.87 406.716 370.519C409.632 382.464 414.604 394.444 418.611 406.107C422.089 416.228 424.863 426.903 429.298 436.637C422.992 440.337 416.943 444.647 410.804 448.627Q394.17 459.198 377.776 470.137C374.161 472.59 370.573 475.069 366.796 477.269C360.627 471.582 350.123 467.056 342.667 462.694C324.19 451.884 305.799 440.754 287.128 430.301C286.819 404.611 287.433 378.942 287.51 353.252C301.33 345.353 315.539 338.629 330.68 333.669Z"/>
	<path fill="white" d="M330.463 340.071Q350.758 349.576 370.692 359.816C380.405 364.765 391.739 371.64 402.106 374.503C408.172 394.803 416.482 414.361 423.193 434.435C409.009 445.068 393.26 453.55 378.764 463.726C375.021 466.299 371.283 468.821 367.399 471.18C342.88 455.756 316.894 442.652 292.521 427.036C292.247 403.408 293.099 379.608 293.465 355.974C305.685 350.705 317.555 343.491 330.463 340.071Z"/>
	<path fill="#222CDF" d="M500.562 211.183C513.663 210.628 527.098 211.477 540.221 211.731C547.913 228.973 556.203 245.918 563.798 263.218C567.818 272.374 572.197 282.079 575.035 291.672C570.649 307.297 543.649 368.809 535.672 379.567C533.36 377.981 530.916 376.633 528.48 375.25Q506.582 363.181 484.457 351.533C478.117 348.184 457.003 338.112 452.591 333.777C451.731 332.933 451.675 332.054 451.583 330.892C450.783 320.79 450.908 310.255 450.666 300.104C450.396 288.745 449.778 277.327 449.953 265.968C460.454 253.556 488.683 217.829 500.562 211.183Z"/>
	<path fill="white" d="M502.665 217.076C513.748 217.624 524.899 217.605 535.998 218.059Q554.285 254.375 569.878 291.926C564.785 303.836 559.597 315.713 554.646 327.682C548.398 342.789 542.273 358.136 534.681 372.633L526.753 368.484Q503.828 356.563 481.188 344.109C473.246 339.753 465.008 335.715 457.397 330.797C456.583 323.55 456.935 315.865 456.794 308.556L455.969 267.815Q470.287 250.766 485.339 234.361C490.761 228.433 496.088 221.75 502.665 217.076Z"/>
	<path fill="#222CDF" d="M489.245 642.326L541.005 673.044C551.047 678.971 561.342 684.577 571.175 690.845C572.28 703.549 572.78 716.253 573.329 728.988C573.737 738.459 573.94 747.969 575.39 757.352C570.757 763.153 565.498 768.616 560.568 774.174Q545.48 791.405 529.832 808.13C523.555 811.432 492.393 812.759 483.668 812.953C479.186 806.803 471.843 787.824 468.376 779.716C461.525 763.696 454.251 747.87 447.996 731.598C451.103 722.442 456.079 713.23 460.18 704.449C469.844 683.76 480.126 663.248 489.245 642.326Z"/>
	<path fill="white" d="M491.284 649.632C499.716 653.445 507.856 658.829 515.844 663.541L566.127 693.631C566.845 700.672 566.808 707.925 567.095 715.002Q567.895 735.409 568.957 755.803C562.915 763.475 555.935 770.663 549.424 777.953C542.17 786.076 535.084 794.599 527.379 802.285C521.87 805.638 494.877 806.208 486.942 806.556C483.616 798.372 479.658 790.344 476.057 782.269L453.553 731.757C458.029 724.464 461.061 715.977 464.646 708.191C473.615 688.714 482.132 669.02 491.284 649.632Z"/>
	<path fill="#222CDF" d="M314.889 555.179C315.826 554.94 316.222 554.943 317.137 555.258C321.131 559.547 325.664 563.468 329.947 567.47C346.765 583.184 364.819 597.242 381.91 612.59C369.215 628.82 356.95 645.433 344.445 661.816C338.204 669.992 332.109 679.206 324.797 686.417C310.584 686.674 296.334 686.215 282.125 685.904C265.001 685.368 247.851 685.739 230.722 685.264C227.615 677.476 225.439 669.201 223.05 661.167Q218.007 644.708 213.542 628.084C222.834 621.135 230.969 610.958 238.993 602.52Q259.153 581.492 279.546 560.69C291.106 560.327 303.433 557.165 314.889 555.179Z"/>
	<path fill="white" d="M313.92 560.664C314.16 560.66 314.405 560.602 314.64 560.652C316.346 561.01 325.75 570.889 327.875 572.854C343.048 586.887 358.918 600.024 374.532 613.555C368.435 620.378 363.194 628.129 357.678 635.43C346.325 650.454 334.92 665.85 322.964 680.39C309.406 681.332 295.282 680.223 281.695 679.88C266.206 679.057 250.553 679.213 235.036 678.885C233.388 672.573 231.031 666.349 229.111 660.102C226.08 650.241 223.372 640.246 219.889 630.532C226.06 624.878 231.701 618.496 237.462 612.427L257.285 591.823C262.074 586.754 277.505 568.699 282.67 566.288C287.705 563.938 307.088 561.859 313.92 560.664Z"/>
	<path fill="#222CDF" d="M141.165 401.427C161.092 421.683 182.864 440.724 200.378 463.216C194.396 473.807 177.638 485.39 167.719 493.072C164.841 495.301 160.848 497.652 158.624 500.523L159.699 499.741L160.153 500.645L160.294 499.509C168.924 493.87 198.934 472.429 206.66 470.992C212.985 469.815 221.181 471.307 227.706 471.508C236.102 486.709 243.305 502.845 251.196 518.349C257.986 531.69 265.647 544.623 272.134 558.106C267.247 564.404 260.921 570.266 255.442 576.108C240.251 592.307 224.488 607.947 209.409 624.247C200.649 622.254 135.874 601.834 132.952 599.566C132.758 599.415 132.599 599.225 132.416 599.06C132.219 598.882 132.014 598.714 131.815 598.539C131.668 598.41 131.525 598.278 131.38 598.147L129.589 600.75L129.951 601.172C131.331 601.02 132.857 600.802 134.234 601.041C138.268 601.741 142.811 604.135 146.693 605.57C166.054 612.727 184.938 621.155 203.984 629.093C206.756 633.518 208.758 638.736 210.953 643.478C217.56 657.758 223.883 672.511 228.949 687.421C244.074 687.816 259.337 689.359 274.441 690.466C290.864 691.671 307.446 692.509 323.791 694.514C332.395 709.74 341.408 724.569 350.767 739.34Q344.216 755.181 338.206 771.235C335.993 776.98 334.072 783.285 331.046 788.641C329.62 791.165 327.512 791.41 324.944 792.113C328.251 794.083 331.634 795.67 335.22 797.058C337.08 791.123 339.814 785.341 342.216 779.599Q350.214 760.751 358.749 742.141C385.989 739.338 413.285 735.533 440.424 731.868C444.818 741.37 450.519 750.558 455.375 759.86Q468.858 786.316 481.94 812.973C480.008 816.703 474.351 823.259 473.546 826.903C476.836 824.215 479.129 818.638 482.541 815.409C482.653 815.303 482.769 815.201 482.883 815.097C499.11 815.322 515.353 816.575 531.596 816.977C540.097 829.841 548.941 842.458 557.318 855.406C565.438 867.957 573.421 881.838 582.899 893.366C580.752 894.501 577.275 894.089 574.866 894.117C560.173 870.019 543.923 846.731 528.597 823.02C514.431 822.135 499.768 821.771 485.566 821.907Q470.401 844.741 454.615 867.15C449.878 873.972 444.316 880.712 440.259 887.934C441.262 889.928 442.163 891.977 443.096 894.006C437.915 894.093 432.288 894.665 427.175 893.694C426.856 893.22 426.598 892.801 426.204 892.375C425.357 891.458 375.044 885.753 370.095 885.342C366.303 887.967 362.839 891.172 359.18 894.001L336.35 893.941Q347.385 885.008 358.674 876.398C356.019 869.168 352.702 862.108 349.813 854.956C342.942 837.95 336.112 821.038 328.509 804.338Q295.046 818.828 262.642 835.55C259.997 854.915 260.649 874.577 257.67 893.959L249.994 894.008C250.05 874.897 252.14 854.784 252.689 835.458C236.867 828.018 218.338 823.256 201.565 818.17C197.522 822.521 193.909 827.241 189.763 831.517C168.746 853.189 146.007 873.25 124.134 894.051C129.072 886.276 136.038 879.333 141.673 871.995L168.968 835.782C175.655 826.962 182.571 818.352 188.963 809.31C183.865 798.359 178.375 787.135 172.263 776.719C168.149 774.992 163.373 774.084 159.075 772.828Q141.208 767.417 123.054 763.062L122.931 746.09C140.073 750.829 157.035 756.532 174.345 760.578C190.417 736.645 204.748 711.61 221.395 688.027C215.637 669.418 207.963 651.67 200.154 633.857C192.384 631.956 184.701 628.011 177.237 625.069Q155.072 616.376 132.774 608.031C129.453 611.449 125.69 614.389 121.947 617.322C121.909 613.518 121.675 609.583 122.239 605.816L123.968 604.945L123.946 604.48L122.56 603.482C122.364 582.303 122.073 560.892 122.646 539.731C124.408 545.68 126.504 551.521 128.194 557.497C131.611 569.585 134.466 581.88 137.53 594.066C145.252 596.409 152.864 599.35 160.506 601.957Q183.717 609.9 207.147 617.171C213.285 612.275 218.847 605.999 224.328 600.359C237.952 586.342 251.072 571.453 265.377 558.146C261.696 549.182 256.69 540.701 252.248 532.095L231.431 491.568Q227.959 484.481 224.281 477.499C218.191 476.587 212.273 476.426 206.132 476.515C197.913 481.27 190.176 487.052 182.421 492.518L143.836 519.84C136.93 524.694 129.974 530.151 122.556 534.152Q122.629 527.081 122.502 520.01C128.655 514.254 135.821 509.453 142.518 504.354C159.529 491.403 177.4 478.605 192.707 463.655C189.077 458.446 183.785 453.648 179.451 448.996C166.271 434.849 152.764 420.44 137.989 407.929C133.814 408.038 127.025 410.095 123.641 407.531C122.646 405.926 123.047 403.964 123.18 402.158Q132.165 401.608 141.165 401.427Z"/>
	<path fill="white" d="M435.516 738.211C435.659 738.189 435.8 738.147 435.944 738.146C437.22 738.145 437.481 738.299 438.267 739.289C442.247 744.301 444.939 751.464 447.826 757.243Q457.372 776.133 466.463 795.247C468.789 800.112 471.541 808.678 475.463 812.236C460.858 835.101 442.931 855.701 427.796 878.189C414.384 876.755 401.01 874.777 387.618 873.142C382.023 872.47 376.429 871.71 370.801 871.393C366.274 857.327 360.477 843.747 355.075 830.005C350.777 819.071 346.94 807.424 341.356 797.097C349.31 781.035 355.005 763.94 362.535 747.67C386.817 744.507 411.146 740.581 435.516 738.211Z"/>
	<path fill="white" d="M234.236 694.602C246.392 694.643 258.717 695.744 270.863 696.434C287.229 697.363 303.668 698.066 319.988 699.624C327.742 713.239 336.917 725.955 343.803 740.07C338.028 756.394 331.061 772.453 324.719 788.576C314.32 795.294 295.539 802.921 283.701 808.602Q270.868 814.72 258.131 821.037C239.89 815.169 221.974 808.254 203.518 803.046C198.36 791.652 192.542 780.577 187.354 769.195C190.194 763.956 193.996 759.038 197.208 754.001L219.687 718.878C224.738 710.915 229.937 703.006 234.236 694.602Z"/>
	<path fill="#222CDF" d="M251.692 129.637L259.849 129.69C262.16 146.144 265.802 162.4 268.215 178.835C287.873 180.691 307.524 183.101 327.211 184.572C335.956 166.489 346.155 148.762 354.011 130.3Q363.039 130.549 372.071 130.54C363.283 152.189 350.432 172.28 340.954 193.677C344.738 206.011 350.211 218.337 355.527 230.091Q384.062 239.255 413.003 247.043C423.497 249.978 434.317 252.514 444.63 255.981C452.586 246.297 459.89 235.751 467.044 225.457C471.083 219.646 475.435 213.826 478.942 207.686L448.24 153.635C443.866 145.95 439.007 138.333 434.948 130.49C439.342 130.375 445.922 129.393 450.032 130.592C453.837 135.804 457.189 141.354 460.753 146.733C469.322 159.665 477.823 172.698 486.813 185.34C490.461 190.471 494.057 195.868 498.173 200.634C508.293 201.456 526.114 202.617 536.017 201.672C540.816 196.859 544.726 190.803 548.87 185.4C560.338 170.447 571.492 154.213 584.546 140.652C584.515 137.344 584.413 134.018 584.488 130.711C589.467 130.847 594.698 130.592 599.618 131.276C603.657 131.837 607.481 133.183 611.567 133.67C625.949 135.383 640.766 137.086 655.226 137.834C659.43 135.55 663.176 132.439 667.404 130.272C674.43 130.415 681.616 130.134 688.61 130.728C681.52 137.281 673.691 143.114 666.262 149.286C672.558 166.062 679.875 182.473 687.081 198.876C690.224 206.029 692.922 213.699 696.541 220.583C712.563 212.544 728.235 203.53 744.013 194.997C749.54 192.008 755.064 188.639 760.735 185.959C762.517 167.752 763.257 149.355 765.695 131.225C768.288 131.089 770.873 130.928 773.47 130.966C772.78 141.285 772.445 151.61 771.824 161.93C771.322 170.264 770.397 178.772 770.477 187.113C784.559 193.07 806.763 202.711 821.001 206.044C844.349 180.419 871.893 155.859 897.176 131.896C893.436 138.417 887.648 144.261 883.128 150.312L851.775 192.017C846.348 199.262 840.47 206.479 835.585 214.091C841.226 225.441 847.367 236.784 852.358 248.433C868.64 253.428 885.604 256.016 901.965 260.667L901.839 276.342C884.452 272.458 867.133 268.365 849.689 264.736C834.085 289.086 816.975 312.807 802.171 337.618C808.985 355.618 817.369 372.97 825.19 390.543Q844.654 398.687 863.926 407.277C871.461 410.597 882.055 416.373 889.91 417.96C893.821 415.371 897.731 412.717 901.806 410.392Q901.121 448.234 901.975 486.071C898.706 475.776 895.31 465.487 892.483 455.061C890.06 446.126 888.165 437.037 885.651 428.131C862.618 421.868 839.423 415.049 816.745 407.617C808.265 414.722 800.488 422.943 792.547 430.651Q774.464 448.285 756.15 465.678L792.966 529.878C795.6 534.372 798.123 541.06 801.802 544.698C804.531 547.396 809.629 548.374 813.225 549.483C823.57 542.498 834.307 536.145 844.702 529.249C856.187 521.63 867.359 513.484 878.623 505.538C886.153 500.226 895.999 494.757 901.767 487.527Q901.452 496.237 901.521 504.953C886.14 514.891 871.919 526.564 857.435 537.752C848.364 544.759 838.483 551.515 830.09 559.316C838.565 567.833 846.468 576.918 854.66 585.706Q870.745 602.812 887.298 619.465C891.978 618.03 896.678 616.117 901.452 615.096C901.501 617.149 901.808 619.347 900.942 621.254C899.099 623.174 891.34 624.467 888.629 624.607C882.413 624.928 876.259 616.824 871.39 613.436C875.47 619.195 881.672 622.032 884.475 628.982C888.972 627.469 895.648 623.572 900.287 624.327C901.348 625.191 901.29 625.287 901.59 626.64C901.106 628.266 900.275 629.012 898.822 629.78C895.729 631.417 892.005 631.996 888.726 633.215C884.124 657.507 878.847 681.732 874.733 706.106C883.738 708.836 892.734 711.916 901.89 714.085C901.786 719.489 901.477 724.932 901.503 730.333C889.735 726.797 877.495 724.42 865.853 720.653C854.464 724.837 842.843 728.321 831.467 732.556C829.763 747.991 829.22 763.596 828.272 779.092C827.527 791.269 826.363 803.425 825.657 815.6Q847.529 839.467 869.888 862.877C879.69 873.016 891.116 883.69 900.264 894.128C890.486 888.43 881.571 879.893 872.648 872.9C860.693 863.531 848.364 854.647 836.309 845.413C828.776 839.643 821.517 833.41 813.825 827.861C797.375 832.621 780.408 837.514 764.336 843.372C766.137 860.133 769.885 876.734 772.296 893.422C770.012 893.542 767.717 893.718 765.431 893.777C763.436 884.669 762.045 875.432 760.307 866.272C759.003 859.4 757.329 852.542 756.202 845.646Q728.243 842.354 700.128 840.898C688.745 857.748 679.906 876.585 669.293 893.984L650.891 893.932C655.91 882.794 663.018 871.955 669.088 861.315C674.553 851.737 679.619 841.372 685.792 832.276C679.501 818.272 671.902 804.043 664.211 790.754C645.256 785.83 626.433 780.569 607.552 775.379C598.43 772.872 589.279 770.066 580.07 767.944L555.023 799.943C551.06 805.044 547.372 810.408 543.231 815.362C546.935 823.529 552.202 831.276 556.85 838.94C568.037 857.386 580.042 875.484 590.894 894.112C589.115 894.103 584.166 894.578 582.899 893.366C579.521 885.558 571.517 875.793 566.834 868.17C556.236 850.918 546.342 833.176 535.96 815.787Q549.28 797.683 563.075 779.938C567.965 773.649 573.029 766.565 578.827 761.104C592.868 765.653 607.308 768.906 621.535 772.828C635.319 776.628 656.983 783.62 670.677 784.968C663.209 781.81 655.097 779.793 647.357 777.339Q626.41 770.708 605.548 763.811C598.216 761.4 589.559 759.377 582.933 755.39C581.16 748.501 581.011 741.135 580.51 734.058C579.478 719.506 579.156 704.658 577.349 690.191C588.51 679.582 603.369 669.078 616.103 660.151C622.536 664.09 629.816 667.042 636.621 670.298C647.483 675.495 658.116 681.026 668.764 686.643C675.581 690.238 682.706 693.689 689.07 698.05C687.977 708.649 684.987 718.99 682.422 729.309L674.059 764.156C672.94 768.904 669.737 775.538 670.32 780.355C673.666 772.038 675.279 762.454 677.609 753.789Q683.015 734.384 688.744 715.072C690.465 709.179 691.844 703.015 693.796 697.214C709.176 688.53 726.648 683.647 741.906 674.813C750.223 680.136 769.581 693.86 777.592 696.764C775.595 694.927 773.113 693.665 770.909 692.082C761.575 685.38 751.923 678.6 741.992 672.801L741.829 619.75C741.774 610.099 741.354 600.36 741.602 590.719L781.774 570.633C787.891 567.525 794.141 564.671 800.04 561.155C804.545 562.044 809.029 563.049 813.631 563.233C829.361 575.125 844.135 588.223 859.562 600.477L859.846 600.337C852.525 591.798 844.528 583.614 836.891 575.333C831.868 569.888 826.629 564.517 822.664 558.223C833.213 547.603 846.2 539.846 856.931 529.521C842.652 537.904 828.985 547.808 814.365 555.547C808.999 553.973 803.639 552.275 798.219 550.901Q780.167 521.127 763.683 490.457C759.026 481.864 753.458 473.089 749.87 464.034C770.628 442.292 793.616 422.703 814.497 401.125C831.717 405.296 848.506 410.726 865.564 415.398C851.191 407.061 834.323 403.057 819.936 394.664C815.957 385.693 811.877 376.755 808.009 367.737C804.171 358.792 800.147 345.621 794.023 338.382C794.687 344.738 796.859 350.979 798.682 357.084C802.585 370.159 807.239 383.463 809.071 396.999C793.727 414.674 776.412 430.878 760.013 447.578C754.954 452.73 749.706 457.76 744.936 463.181C732.366 463.887 719.461 465.626 706.896 465.502C696.936 459.143 686.359 447.983 677.273 440.073C666.457 430.656 652.666 420.282 643.019 410.027C662.448 386.334 681.626 362.098 699.86 337.479C715.488 338.663 731.254 338.729 746.921 339.279C759.399 339.718 772.285 340.796 784.723 340.363C786.084 340.316 787.508 340.096 788.6 339.227C788.757 339.103 788.885 338.945 789.027 338.805L788.921 337.941C787.628 337.103 786.416 336.871 784.888 336.724C780.243 336.275 775.533 336.246 770.873 335.879C759.408 334.977 747.951 333.86 736.497 332.82C724.35 331.716 711.886 329.846 699.729 329.421Q692.695 317.059 684.844 305.199C681.176 299.541 676.427 293.494 673.893 287.276C675.459 282.07 677.645 277.084 679.523 271.988C682.468 263.992 685.252 255.951 688.26 247.975C690.79 241.268 693.625 234.56 695.795 227.731L691.078 224.518C687.443 230.048 685.274 237.531 682.853 243.701C677.983 256.115 673.039 268.566 668.676 281.167C640.358 284.973 611.917 287.757 583.621 291.595Q568.449 264.262 554.404 236.333C551.757 231.093 549.279 225.779 546.665 220.527C545.349 217.883 543.728 215.323 542.733 212.534C542.237 211.144 541.721 209.283 542.141 207.807C543.012 204.739 548.348 200.486 548.535 198.188C545.738 199.738 541.886 205.611 539.031 208.021C527.708 208.93 505.92 208.008 494.482 206.72Q486.521 196.953 479.149 186.734C475.982 182.349 463.078 161.74 460.396 159.841C462.407 164.961 468.436 174.623 471.434 180.009C476.398 188.924 480.762 198.996 486.952 207.092C474.435 226.279 461.303 246.035 446.158 263.253C425.18 256.171 403.468 250.614 382.114 244.736C373.9 242.475 364.925 238.726 356.458 237.978C355.385 238.617 355.743 238.184 355.289 239.193C359.349 241.446 364.629 241.982 369.058 243.525Q391.576 251.614 414.386 258.84C423.851 261.942 433.678 264.756 442.944 268.397C444.069 283.86 444.262 299.515 444.698 315.016C444.877 321.385 445.445 327.757 445.55 334.122C437.889 341.836 429.208 348.927 420.882 355.921C417.05 359.14 412.939 362.183 409.443 365.764C397.957 359.139 385.964 353.332 374.186 347.244C361.52 340.697 349.004 333.889 336.289 327.432L336.327 326.663C336.809 317.981 338.858 309.099 340.511 300.575Q343.749 283.226 347.53 265.987C349.084 258.89 351.677 250.784 351.877 243.531L352.209 244.067L351.07 244.775C347.266 261.38 342.64 277.753 338.401 294.247C335.604 305.13 333.473 316.922 329.444 327.394C314.018 335.532 297.551 342.122 281.391 348.675C268.59 341.966 257.067 333.176 244.388 326.356L244.399 326.671C253.95 334.621 270.676 346.842 281.582 352.385Q282.211 391.711 281.581 431.036Q265.541 440.517 249.705 450.336C242.595 454.668 235.114 458.78 228.369 463.66C223.686 463.665 217.271 464.401 212.862 462.783C202.868 459.114 160.123 417.924 149.923 408.203C148.187 406.548 140.983 398.818 139.41 398.144C137.308 397.243 125.664 398.82 123.011 399.404C122.935 397.572 122.585 395.546 123.654 393.962C126.626 391.556 131.373 392.25 135.028 391.656L149.418 318.955C140.516 316.213 131.6 312.922 122.553 310.743Q122.361 302.389 122.714 294.04C134.463 297.722 146.338 300.903 158.109 304.494C169.981 301.393 182.086 296.076 193.335 291.197C195.234 278.218 195.695 264.762 196.89 251.678C198.163 237.741 200.226 223.516 200.635 209.538C187.411 195.854 174.964 181.356 162.057 167.362C150.15 155.105 136.604 142.767 125.692 129.74C137.235 138.702 148.508 148.095 160.015 157.129Q186.42 177.558 213.161 197.547C227.457 192.047 246.469 185.751 259.744 179.158C258.16 162.594 253.773 146.216 251.692 129.637Z"/>
	<path fill="white" d="M358.25 246.915Q381.926 254.251 405.515 261.858C416.006 265.346 426.392 269.149 437 272.276C437.722 282.039 437.697 291.912 438.105 301.703C438.528 311.828 439.379 321.951 439.569 332.081Q428.29 341.915 417.301 352.072C414.569 354.599 411.712 356.893 408.774 359.176C399.55 353.896 389.99 349.272 380.583 344.335C367.864 337.659 355.359 330.8 342.426 324.526C346.437 298.429 353.669 272.894 358.25 246.915Z"/>
	<path fill="white" d="M615.71 666.373C619.336 666.91 623.944 669.774 627.317 671.383C646.162 680.37 664.243 690.633 682.807 700.144C681.756 710.85 677.761 722.041 675.18 732.524C671.632 746.93 668.939 762.509 663.885 776.416L654.885 773.442L615.044 760.777C605.987 757.922 596.702 755.408 587.959 751.671C585.166 733.355 584.17 710.207 583.351 691.41C594.469 683.538 604.715 674.44 615.71 666.373Z"/>
	<path fill="white" d="M702.168 343.648C710.841 342.742 720.266 343.907 728.998 344.201C749.05 344.877 769.093 345.825 789.16 345.949C791.496 352.137 792.98 358.801 794.842 365.155C797.704 374.914 801.04 384.713 803.067 394.675C797.18 402.166 789.935 408.663 783.301 415.491C770.753 428.406 758.157 441.224 745.813 454.336L741.916 458.295C730.653 459.573 719.104 460.211 707.772 460.484C696.984 449.873 685.216 439.739 673.598 430.059C665.726 423.5 657.518 417.19 650.169 410.047C666.03 386.938 685.533 366.23 702.168 343.648Z"/>
	<path fill="white" d="M598.078 146.881C603.949 147.186 609.933 148.207 615.791 148.88L652.1 152.992L667.908 191.512C670.698 198.456 673.068 206.707 676.996 213.021C678.865 216.026 682.568 218.691 684.987 221.411C676.996 239.034 671.915 258.021 664.165 275.726C652.854 277.687 641.402 278.899 630.045 280.587C615.342 282.222 600.738 284.348 585.98 285.609C577.312 269.373 569.375 252.684 561.222 236.183C556.963 227.564 552.866 218.817 548.036 210.499C555.671 198.696 565.519 187.764 574.202 176.701C581.926 166.86 589.234 155.705 598.078 146.881Z"/>
	<path fill="white" d="M198.7 305.949C205.154 307.552 238.594 331.781 246.036 336.846Q260.58 346.834 275.5 356.25C276.256 380.011 276.074 403.859 275.945 427.629Q250.613 442.689 225.569 458.221C222.046 458.321 218.494 458.047 214.975 457.872C206.898 452.601 199.815 445.568 192.598 439.205Q176.709 425.395 161.694 410.64C156.287 405.386 150.532 400.244 146.017 394.184C148.446 387.293 150.178 380.119 152.083 373.068C156.941 355.081 161.043 336.876 166.201 318.975C176.604 313.951 187.989 310.352 198.7 305.949Z"/>
	<path fill="white" d="M803.906 567.572C804.493 567.58 804.482 567.563 805.021 567.627C808.77 568.075 812.103 570.339 815.113 572.486C828.615 582.111 840.751 594.305 853.048 605.44C861.237 612.855 870.683 620.177 877.705 628.689C876.181 637.65 873.609 646.559 871.428 655.383Q865.318 680.877 857.737 705.974C852.803 708.045 825.806 718.088 822.791 717.354C797.809 701.4 773.076 685.004 747.929 669.319Q747.438 631.631 747.503 593.94C760.785 588.776 773.518 581.131 786.339 574.87C791.999 572.106 797.779 569.129 803.906 567.572Z"/>
	<path fill="white" d="M765.049 199.878C773.976 202.519 784.074 208.315 792.812 212.095C802.441 216.261 812.411 219.581 822.183 223.391C827.431 231.877 832.84 245.84 837.461 255.268C830.445 265.631 823.998 276.483 817.113 286.955C807.622 301.39 797.538 315.821 788.863 330.751C778.387 331.298 767.499 329.631 757.067 328.632C738.929 327.497 720.811 325.553 702.705 323.973C695.664 311.421 687.542 299.497 680.512 286.938Q689.907 260.026 700.856 233.709C709.722 230.008 718.276 225.188 726.79 220.748C739.635 214.05 752.625 207.336 765.049 199.878Z"/>
	<path fill="white" d="M741.463 681.965Q761.737 695.17 781.719 708.813C792.646 716.362 803.326 724.35 814.516 731.501C814.351 739.114 813.359 746.83 812.84 754.437C811.538 773.508 810.132 792.616 809.109 811.702Q792.098 816.475 775.311 821.983C769.46 823.849 763.179 826.438 757.147 827.432C755.504 827.703 753.785 827.647 752.125 827.605C734.506 827.289 716.607 825.136 699.006 823.91C692.813 809.629 683.322 796.752 677.119 782.431C680.639 770.894 683.292 759.158 686.328 747.49Q692.506 724.539 698.238 701.473C712.118 694.037 727.261 688.773 741.463 681.965Z"/>
	<path fill="white" d="M265.968 194.062C285.911 195.735 306.162 197.389 325.98 200.131C328.541 204.041 330.539 208.438 332.765 212.553L345.244 235.39C343.965 244.969 341.332 254.551 339.095 263.95C334.325 283.992 328.975 303.895 324.279 323.958L287.476 339.75L281.66 342.261C257.971 326.897 231.945 310.604 209.916 293.171C210.982 266.29 214.36 239.156 216.589 212.331C233.251 206.809 249.292 199.534 265.968 194.062Z"/>
</svg>
